<?xml version="1.0" encoding="UTF-8"?>
<svg id="Ebene_2" data-name="Ebene 2" xmlns="http://www.w3.org/2000/svg" viewBox="0 0 268.8 210.41">
  <defs>
    <style>
      .cls-1 {
        stroke-miterlimit: 10;
      }

      .cls-1, .cls-2 {
        fill: none;
        stroke: #171e21;
        stroke-width: 5px;
      }

      .cls-2 {
        stroke-miterlimit: 15.6;
      }
    </style>
  </defs>
  <g id="icons">
    <line class="cls-2" y1="207.91" x2="268.8" y2="207.91"/>
    <path class="cls-1" d="M135.1,4.01s-49.6,81-49.6,104.9,1.4,13.4,3.9,19.3,2.6,5.4,4.2,7.9,4.8,6.4,7.7,9.1,7.1,5.8,11.2,7.9c6.8,3.5,14.5,5.5,22.7,5.5,27.4,0,49.6-22.3,49.6-49.6S135.2,4.11,135.2,4.11l-.1-.1Z"/>
    <path class="cls-1" d="M98.5,112.51c-.9-4.1-1.4-8.4-1.4-12.6"/>
    <path class="cls-1" d="M100.6,119.11c1.2,2.8,2.6,5.4,4.2,7.9s4.8,6.4,7.7,9.1,7.1,5.8,11.2,7.9"/>
  </g>
</svg>