<?xml version="1.0" encoding="UTF-8"?>
<svg id="Ebene_2" data-name="Ebene 2" xmlns="http://www.w3.org/2000/svg" viewBox="0 0 268.8 218.9">
  <defs>
    <style>
      .cls-1 {
        stroke-miterlimit: 10;
      }

      .cls-1, .cls-2 {
        fill: none;
        stroke: #171e21;
        stroke-width: 5px;
      }

      .cls-2 {
        stroke-miterlimit: 15.6;
      }
    </style>
  </defs>
  <g id="icons">
    <line class="cls-2" y1="216.4" x2="268.8" y2="216.4"/>
    <path class="cls-1" d="M134.4,177.1c-4.9,0-9.8-.5-14.5-1.3,2.6-9.1-2-18.9-11-22.6-9-3.7-19.2.1-23.7,8.5-8.4-5.8-15.8-13-21.8-21.6,8.3-4.6,12-14.8,8.3-23.8-3.8-9-13.6-13.5-22.7-10.8-1.9-10.3-1.9-20.7-.1-30.7,9.1,2.6,18.9-2,22.6-11s-.1-19.2-8.5-23.7c5.8-8.4,13-15.8,21.6-21.8,4.6,8.3,14.8,12,23.8,8.3,9-3.8,13.5-13.6,10.8-22.7,5.1-.9,10.2-1.4,15.3-1.4s10.2.5,15.3,1.4c-2.7,9.1,1.8,19,10.8,22.7,9,3.8,19.2,0,23.8-8.3,8.6,6,15.8,13.4,21.6,21.8-8.4,4.5-12.1,14.7-8.5,23.7,3.7,9,13.5,13.6,22.6,11,1.7,10,1.8,20.4-.1,30.7-9.1-2.7-19,1.8-22.7,10.8-3.8,9,0,19.2,8.3,23.8-6,8.6-13.4,15.8-21.8,21.6-4.5-8.4-14.7-12.1-23.7-8.5-9,3.7-13.6,13.5-11,22.6-4.8.8-9.6,1.3-14.5,1.3"/>
    <circle class="cls-1" cx="134.4" cy="89.8" r="57.4"/>
    <polyline class="cls-1" points="108.17 88.73 127.5 106.4 166.46 67.64"/>
  </g>
</svg>