<?xml version="1.0" encoding="UTF-8"?>
<svg id="Ebene_2" data-name="Ebene 2" xmlns="http://www.w3.org/2000/svg" width="1105.7" height="157.3" version="1.1" viewBox="0 0 1105.7 157.3">
  <defs>
    <style>
      .cls-1, .cls-2 {
        opacity: .5;
      }

      .cls-1, .cls-3 {
        fill: #fff;
        stroke-width: 0px;
      }
    </style>
  </defs>
  <polygon class="cls-1" points="209.6 22.5 209.6 66.7 49.5 66.7 49.5 22.9 10.5 .3 0 .3 0 69.2 0 88.5 0 157.3 10.5 157.3 49.5 134.8 49.5 91.4 209.6 91.4 209.6 134.4 248.6 156.9 259.1 156.9 259.1 88.1 259.1 68.8 259.1 0 248.6 0 209.6 22.5"/>
  <polygon class="cls-1" points="280.8 22.9 280.8 69.2 280.8 88.5 280.8 134.8 319.8 157.3 539.4 157.3 539.4 146.6 515 132.5 330.3 132.5 330.3 91.8 490.4 91.8 514.8 77.7 514.8 67.1 330.3 67.1 330.3 25.1 515 25.1 539.4 11 539.4 .3 319.8 .3 280.8 22.9"/>
  <g class="cls-2">
    <polygon class="cls-3" points="789.1 92.4 828.1 69.8 828.1 64.5 828.1 47.5 828.1 23.1 789.1 .6 581.8 .6 557.2 14.8 557.2 25.4 778.6 25.4 778.6 47.5 778.6 67.6 590.1 67.6 547.7 92.1 547.7 92.4 547.7 92.4 547.7 134.8 586.7 157.3 597.2 157.3 597.2 92.4 789.1 92.4"/>
    <polygon class="cls-3" points="777.5 107.9 713.4 107.9 789.1 157 837 156.6 837.1 146.5 777.5 107.9"/>
  </g>
  <path class="cls-3" d="M1066.7.2h-181.1l-39,22.5v111.9l39,22.5h181.1l39-22.5V22.7L1066.7.2ZM1056.2,69v63.4h-160.1V24.9h160.1v44.1Z"/>
</svg>