<?xml version="1.0" encoding="UTF-8"?>
<svg id="Ebene_2" data-name="Ebene 2" xmlns="http://www.w3.org/2000/svg" viewBox="0 0 268.8 210.2">
  <defs>
    <style>
      .cls-1 {
        stroke-miterlimit: 10;
      }

      .cls-1, .cls-2 {
        fill: none;
        stroke: #171e21;
        stroke-width: 5px;
      }

      .cls-2 {
        stroke-miterlimit: 15.6;
      }
    </style>
  </defs>
  <g id="icons">
    <line class="cls-2" y1="207.7" x2="268.8" y2="207.7"/>
    <path class="cls-1" d="M54.7,130.9l5.4-20.7,12-1.7,7.9-40.5,14.9-5.1,21.7-35.3h46.1l8.6,25.8,10.4,1.7,10.4,38.2,14.1,4.3,5.9,28.8"/>
    <path class="cls-1" d="M116.6,27.6l14-19.9c2.7-3.4,5.9-5.2,9.3-5.2h.2c2.2,0,5.2.8,8.2,4.5l14.3,19.8"/>
    <path class="cls-1" d="M121.2,34.8l14.8,10.5-8.3,7.5,12.5,6.5"/>
    <path class="cls-1" d="M180.5,53.8l-6.2,23.4-11.7,4"/>
    <path class="cls-1" d="M83,66.5l18,17.6c.8.8.9,2,.4,2.9l-8.2,13.3"/>
    <polygon class="cls-1" points="217.8 131.3 205 119.3 194.1 130.9 183.6 158.4 179.5 158.4 175.1 123 167.2 119.9 159.3 97.7 155.6 97.7 150.1 83.4 124.6 83.4 111.9 103.1 103.3 106.6 99.1 128.3 91.2 131.1 89.6 158.4 87.3 158.4 84 136.3 39.9 129.6 32 158.4 89.6 158.4 179.5 158.4 233.5 158.4 217.8 131.3"/>
    <path class="cls-1" d="M205.6,96.2l-9.3,20.3-15.3-2.7"/>
    <path class="cls-1" d="M80.4,122.7l-15.6-2-5.5-9.8"/>
  </g>
</svg>