<?xml version="1.0" encoding="UTF-8"?>
<svg id="Ebene_2" data-name="Ebene 2" xmlns="http://www.w3.org/2000/svg" viewBox="0 0 1386.05 157.27">
  <defs>
    <style>
      .cls-1 {
        fill: #fff;
        stroke-width: 0px;
      }
    </style>
  </defs>
  <g id="_图层_1" data-name="图层 1">
    <g>
      <polygon class="cls-1" points="129.54 89.64 22.92 .18 0 .18 0 14.66 0 18.22 0 68.98 0 88.29 0 157.09 10.5 157.09 49.5 134.58 49.5 88.29 49.5 68.98 49.5 59.75 122.83 121.29 138.08 121.29 209.57 59.75 209.57 68.98 209.57 88.29 209.57 134.58 248.57 157.09 259.07 157.09 259.07 88.29 259.07 68.98 259.07 18.22 259.07 14.66 259.07 .18 236.15 .18 129.54 89.64"/>
      <polygon class="cls-1" points="489.95 22.52 489.95 66.67 329.87 66.67 329.87 22.87 290.87 .35 280.37 .35 280.37 69.16 280.37 88.46 280.37 157.27 290.87 157.27 329.87 134.75 329.87 91.42 489.95 91.42 489.95 134.4 528.94 156.92 539.44 156.92 539.44 88.11 539.44 68.81 539.44 0 528.94 0 489.95 22.52"/>
      <polygon class="cls-1" points="561.21 22.87 561.21 69.16 561.21 88.46 561.21 134.75 600.21 157.27 819.81 157.27 819.81 146.64 795.36 132.52 610.71 132.52 610.71 91.8 770.75 91.8 795.18 77.69 795.18 67.05 610.71 67.05 610.71 25.1 795.38 25.1 819.81 10.99 819.81 .35 600.21 .35 561.21 22.87"/>
      <path class="cls-1" d="M1347.05.18h-181.08l-39,22.52v111.88l39,22.52h181.08l39-22.52V22.69L1347.05.18ZM1336.56,68.98v63.36h-160.08V24.92h160.08v44.06Z"/>
      <g>
        <polygon class="cls-1" points="1069.43 92.37 1108.43 69.85 1108.43 64.53 1108.43 47.52 1108.43 23.15 1069.43 .64 862.21 .64 837.6 14.84 837.6 25.38 1058.94 25.38 1058.94 47.52 1058.94 67.62 870.49 67.62 828.06 92.11 828.06 92.37 828.06 92.37 828.06 134.75 867.06 157.27 877.56 157.27 877.56 92.37 1069.43 92.37"/>
        <polygon class="cls-1" points="1057.84 107.95 993.75 107.95 1069.48 156.96 1117.33 156.59 1117.44 146.52 1057.84 107.95"/>
      </g>
    </g>
  </g>
</svg>