<?xml version="1.0" encoding="UTF-8"?>
<svg id="Ebene_2" data-name="Ebene 2" xmlns="http://www.w3.org/2000/svg" viewBox="0 0 41 41">
  <defs>
    <style>
      .cls-1 {
        fill: #bee1d6;
        stroke-width: 0px;
      }

      .cls-2 {
        fill: none;
        stroke: #bee1d6;
        stroke-miterlimit: 10;
      }
    </style>
  </defs>
  <g id="Ebene_1-2" data-name="Ebene 1">
    <path class="cls-1" d="M20.5,8.45c-3.29,0-3.65,0-4.99.12-1.34,0-2.19.24-2.92.61-.73.37-1.46.73-2.07,1.34s-1.1,1.34-1.34,2.07c-.24.73-.49,1.58-.61,2.92,0,1.34-.12,1.7-.12,4.99s0,3.65.12,4.99c0,1.34.24,2.19.61,2.92s.73,1.46,1.34,2.07,1.34,1.1,2.07,1.34c.73.24,1.58.49,2.92.61,1.34,0,1.7.12,4.99.12s3.65,0,4.99-.12c1.34,0,2.19-.24,2.92-.61.73-.37,1.46-.73,2.07-1.34s1.1-1.34,1.34-2.07c.24-.73.49-1.58.61-2.92,0-1.34.12-1.7.12-4.99s0-3.65-.12-4.99c0-1.34-.24-2.19-.61-2.92-.37-.73-.73-1.46-1.34-2.07s-1.34-1.1-2.07-1.34c-.73-.24-1.58-.49-2.92-.61-1.34-.12-1.7-.12-4.99-.12h0ZM19.4,10.64h1.1c3.16,0,3.53,0,4.87.12,1.22,0,1.83.24,2.19.37.61.24.97.49,1.34.85s.73.85.85,1.34c.12.37.37,1.1.37,2.19,0,1.22.12,1.7.12,4.87s0,3.53-.12,4.87c0,1.22-.24,1.83-.37,2.19-.24.61-.49.97-.85,1.34-.37.37-.85.73-1.34.85-.37.12-1.1.37-2.19.37-1.22,0-1.7.12-4.87.12s-3.65,0-4.87-.12c-1.22,0-1.83-.24-2.19-.37-.61-.24-.97-.49-1.34-.85-.37-.37-.73-.85-.85-1.34-.12-.37-.37-1.1-.37-2.19,0-1.22-.12-1.7-.12-4.87s0-3.53.12-4.87c0-1.22.24-1.83.37-2.19.24-.61.49-.97.85-1.34s.85-.73,1.34-.85c.37-.12,1.1-.37,2.19-.37,1.1-.12,1.58-.12,3.77-.12h0ZM26.95,12.59c-.85,0-1.46.61-1.46,1.46s.61,1.46,1.46,1.46,1.46-.61,1.46-1.46c0-.73-.73-1.46-1.46-1.46h0ZM20.5,14.29c-3.41,0-6.21,2.8-6.21,6.21s2.8,6.21,6.21,6.21,6.21-2.8,6.21-6.21-2.8-6.21-6.21-6.21h0ZM20.5,16.48c2.19,0,4.02,1.83,4.02,4.02s-1.83,4.02-4.02,4.02-4.02-1.83-4.02-4.02,1.83-4.02,4.02-4.02Z"/>
    <rect class="cls-2" x=".5" y=".5" width="40" height="40"/>
  </g>
</svg>