<svg width="45" height="45" viewBox="0 0 45 45" fill="none" xmlns="http://www.w3.org/2000/svg">
<rect x="0.67" y="0.67" width="43.66" height="43.66" stroke="#BEE1D6" stroke-width="1.34"/>
<path d="M22.7617 34.2293C21.3823 34.2293 20.4619 33.5779 19.64 33.0041C19.0558 32.5902 18.5087 32.1973 17.863 32.0883C17.5556 32.0356 17.2441 32.01 16.9322 32.0118C16.3851 32.0118 15.9504 32.0941 15.6409 32.1567C15.4439 32.1915 15.2793 32.2239 15.1494 32.2239C15.015 32.2239 14.8446 32.1868 14.7785 31.9597C14.7205 31.7742 14.6846 31.598 14.6487 31.4276C14.5559 30.9987 14.4783 30.7356 14.3171 30.7089C12.5911 30.4458 11.5583 30.0482 11.3566 29.5776C11.3404 29.5266 11.3207 29.4732 11.3207 29.4327C11.3091 29.2889 11.4134 29.1695 11.5583 29.1429C12.9273 28.9168 14.1572 28.1877 15.1958 26.9891C16.0026 26.0583 16.3955 25.1588 16.4315 25.0615C16.4315 25.0499 16.4419 25.0499 16.4419 25.0499C16.6397 24.6426 16.6791 24.2968 16.5601 24.0124C16.3376 23.4792 15.6038 23.252 15.1031 23.0967C14.9744 23.0619 14.8654 23.0202 14.7727 22.9889C14.3438 22.8185 13.6298 22.4556 13.7237 21.9549C13.7909 21.5932 14.2708 21.3347 14.6637 21.3347C14.7727 21.3332 14.8654 21.3525 14.9419 21.3927C15.3824 21.5932 15.78 21.6964 16.1208 21.6964C16.5451 21.6964 16.7468 21.5364 16.7978 21.4854C16.787 21.2561 16.7734 21.027 16.7572 20.798C16.6529 19.2158 16.5346 17.2521 17.0354 16.1266C18.54 12.7569 21.7335 12.4868 22.6794 12.4868L23.092 12.4775H23.15C24.0947 12.4775 27.2882 12.7407 28.7928 16.1162C29.2994 17.2417 29.1753 19.2111 29.071 20.7876L29.0606 20.8653C29.0513 21.0762 29.0351 21.2779 29.0258 21.4854C29.0768 21.526 29.2623 21.6813 29.6448 21.686C29.9763 21.6767 30.338 21.5677 30.7507 21.3811C30.8649 21.3316 30.9878 21.3056 31.1123 21.3046C31.2572 21.3046 31.4021 21.3394 31.5261 21.3811H31.5366C31.8832 21.5109 32.1104 21.7532 32.1104 22.007C32.1208 22.2447 31.9342 22.6063 31.0509 22.9634C30.9581 22.9981 30.8492 23.041 30.7205 23.0712C30.229 23.2219 29.4953 23.4595 29.2623 23.9869C29.1336 24.2651 29.1846 24.6221 29.3817 25.0255C29.3817 25.0348 29.3921 25.0348 29.3921 25.0348C29.4489 25.1797 30.9419 28.5703 34.2652 29.1232C34.3332 29.1346 34.3947 29.1703 34.4384 29.2235C34.482 29.2768 34.505 29.3441 34.5029 29.413C34.5036 29.4647 34.4917 29.5146 34.4669 29.5625C34.2652 30.0378 33.2417 30.4249 31.5053 30.6938C31.3453 30.7193 31.2676 30.9836 31.1749 31.4125C31.138 31.5913 31.0951 31.7687 31.0462 31.9446C30.9941 32.115 30.8851 32.2077 30.6985 32.2077H30.6741C30.5089 32.2048 30.3443 32.1857 30.1827 32.1509C29.7578 32.0605 29.3246 32.0155 28.8902 32.0165C28.5787 32.0173 28.2678 32.0433 27.9605 32.0941C27.3195 32.1984 26.7666 32.596 26.1824 33.0099C25.3501 33.5778 24.4251 34.2293 23.0561 34.2293H22.7617Z" fill="#BEE1D6"/>
</svg>
