<?xml version="1.0" encoding="UTF-8"?>
<svg id="Ebene_2" xmlns="http://www.w3.org/2000/svg" version="1.1" viewBox="0 0 40 40">
  <!-- Generator: Adobe Illustrator 29.0.0, SVG Export Plug-In . SVG Version: 2.1.0 Build 186)  -->
  <defs>
    <style>
      .st0 {
        fill: none;
        stroke: #bee1d6;
        stroke-miterlimit: 9.76;
        stroke-width: .98px;
      }

      .st1 {
        fill: #bee1d6;
      }
    </style>
  </defs>
  <g id="Ebene_1-2">
    <rect class="st0" x=".49" y=".49" width="39.02" height="39.02"/>
  </g>
  <path class="st1" d="M27.6,13.32c-.16-.08-.31-.17-.46-.27-.43-.29-.83-.62-1.18-1-.88-1.01-1.21-2.03-1.33-2.75h0c-.1-.59-.06-.98-.05-.98h-4.01v15.51c0,.21,0,.41,0,.62,0,.03,0,.05,0,.08,0,.01,0,.02,0,.03h0c-.09,1.14-.73,2.15-1.71,2.71-.51.29-1.08.44-1.66.44-1.87,0-3.38-1.52-3.38-3.41s1.51-3.41,3.38-3.41c.35,0,.71.06,1.04.16v-4.08c-2.06-.27-4.14.34-5.74,1.68-.69.6-1.27,1.32-1.72,2.12-.17.29-.81,1.47-.89,3.37-.05,1.08.28,2.2.43,2.66h0c.1.28.47,1.21,1.09,2,.5.63,1.08,1.18,1.74,1.64h0s0,0,0,0c1.94,1.32,4.1,1.23,4.1,1.23.37-.02,1.62,0,3.04-.67,1.57-.74,2.47-1.85,2.47-1.85.57-.66,1.03-1.42,1.34-2.23.36-.95.48-2.1.48-2.56v-8.23s.7.46.7.46c0,0,.93.6,2.39.99,1.05.28,2.45.34,2.45.34v-3.98c-.49.05-1.5-.1-2.52-.61Z"/>
</svg>