<svg width="45" height="45" viewBox="0 0 45 45" fill="none" xmlns="http://www.w3.org/2000/svg">
<rect x="0.67" y="0.67" width="43.66" height="43.66" stroke="#BEE1D6" stroke-width="1.34"/>
<path d="M20.5917 26.3876L26.6078 22.9101L20.5917 19.4326V26.3876ZM33.9917 17.3113C34.1423 17.8561 34.2467 18.5864 34.3162 19.5137C34.3974 20.441 34.4321 21.2409 34.4321 21.9364L34.5017 22.9101C34.5017 25.4486 34.3162 27.3149 33.9917 28.5088C33.7019 29.5521 33.0295 30.2244 31.9863 30.5142C31.4415 30.6649 30.4446 30.7692 28.9145 30.8388C27.4076 30.9199 26.0282 30.9547 24.7531 30.9547L22.91 31.0242C18.0531 31.0242 15.0277 30.8388 13.8338 30.5142C12.7905 30.2244 12.1182 29.5521 11.8284 28.5088C11.6777 27.964 11.5734 27.2338 11.5038 26.3064C11.4227 25.3791 11.3879 24.5793 11.3879 23.8838L11.3184 22.9101C11.3184 20.3715 11.5038 18.5052 11.8284 17.3113C12.1182 16.268 12.7905 15.5957 13.8338 15.3059C14.3786 15.1552 15.3754 15.0509 16.9055 14.9814C18.4125 14.9002 19.7919 14.8654 21.067 14.8654L22.91 14.7959C27.7669 14.7959 30.7924 14.9814 31.9863 15.3059C33.0295 15.5957 33.7019 16.268 33.9917 17.3113Z" fill="#BEE1D6"/>
</svg>
